# xmcd
#
# Track frame offsets:
#	150
#	12441
#	26055
#	40977
#	63904
#	83196
#
# Disc length: 1358 seconds
#
# Revision: 393212
# Processed by: cddbd v1.5.2PL0 Copyright (c) Steve Scherf et al.
# Submitted via: EZCDAudioConverter 8.0.1.1
#
DISCID=45054c06
DTITLE=Forlorn Strangers - American Magic Tricks
DYEAR=2014
DGENRE=Pop
TTITLE0=Jolene
TTITLE1=Wanderin' Blues
TTITLE2=When It Rains
TTITLE3=Whittle and Pare
TTITLE4=Measure Me Up
TTITLE5=Fiddle, Boy
EXTD=
EXTT0=
EXTT1=
EXTT2=
EXTT3=
EXTT4=
EXTT5=
PLAYORDER=
